<svg version="1.0" xmlns="http://www.w3.org/2000/svg" width="800" height="800" viewBox="0 0 600 600">
    <g fill="#600">
        <path
            d="M290.5 14.2c-.2.7-.8 2.9-1.3 4.8-.7 3-1.5 3.7-5 4.8-5.1 1.7-5.4 3.7-.7 4.6 3.8.7 6.5 3.8 6.5 7.3 0 3.4 2.9 2.9 3.6-.6.8-3.7 2.9-5.7 7.2-6.8 3.9-1 4.1-2.5.5-3.7-4.1-1.3-5.4-2.6-7.4-7.3-1.9-4.5-2.7-5.2-3.4-3.1zM256.8 76.6c-2.3 2-4.7 4.4-5.2 5.3-1.9 3.5-3.5 3.9-14.4 3.4l-10.7-.5-2.2 2.9c-1.2 1.7-3.5 3.3-5 3.6-1.6.3-3.5 1.6-4.2 2.9-4.1 7.8-7.6 11.8-10.2 11.8-1 0-4-2-6.6-4.5-4.6-4.4-5-4.6-10.2-4.3l-5.5.3-6.5 8.3c-3.6 4.6-7.9 9-9.6 9.9-5.1 2.6-14.1 4.4-17 3.3-3.5-1.3-11.2 2.1-12.5 5.4-.5 1.3-1.4 2.7-1.9 3.1-.6.3-1.1 2.7-1.1 5.2 0 4 .4 5 3.6 7.7 2.9 2.5 3.6 3.8 3.6 6.9 0 5.6-1.6 7-7.4 6.2-5.2-.7-7.8.4-7.8 3.5 0 1.8 3.2 6.2 10.3 14.3 4.1 4.6 9.2 12.7 12.3 19.6.8 1.8 2.6 5.1 4 7.2 1.3 2.1 2.4 4.3 2.4 4.8 0 .6 1.4 3 3 5.4 1.7 2.5 3 5.2 3 6.1 0 .8 1.3 4.4 2.9 7.8 4.5 9.7 9.1 20.9 9.1 22.2 0 .7 1.2 4.1 2.6 7.7 1.4 3.5 3 7.7 3.4 9.4.5 1.6 1.5 4.8 2.4 7 1.4 3.9 1.4 4-1.2 6.2-1.5 1.2-3.5 2.2-4.4 2.3-.9 0-2 .5-2.3 1.1-.4.5-1.7 1.4-2.8 2-2.8 1.2-5.3 2.7-9.8 6.1-2 1.6-4 2.8-4.3 2.8-.6 0-6.9 4.7-12.1 9-4.7 4-19.5 19.3-19.5 20.2 0 .5-1.2 2.7-2.6 4.9-7.7 12.2-6.9 25.1 2 34.1 2.4 2.4 4.9 4.7 5.7 5.3 3.6 2.4 5.5 3.6 6.9 4.1.8.3 2.7 1.2 4.2 2 1.4.8 3.5 1.4 4.5 1.4s2.4.5 3.1 1.2c.7.7 3.6 1.5 6.4 1.9 2.9.4 7.6 1.2 10.3 1.8 20.3 4 50.5 4 79.5 0 4.1-.6 10.9-1.5 15-2 4.1-.4 11.8-1.8 17-2.9 5.2-1.2 11.8-2.5 14.5-3 2.8-.4 8.4-1.8 12.5-3 4.1-1.1 9.5-2.5 11.9-3.1 5.4-1.1 10.9-2.8 13.4-4.1 1-.5 3.7-1.3 6-1.7 2.3-.5 6.7-1.9 9.7-3.1 3-1.2 6.9-2.5 8.5-3 1.7-.4 5.6-1.9 8.9-3.4 3.2-1.4 6.4-2.6 7-2.6.7 0 3.9-1.4 7.1-3 3.2-1.7 6.5-3 7.3-3 .8 0 3.7-1.4 6.4-3 2.6-1.7 5.4-3 6.1-3 .6-.1 3-1.2 5.2-2.5 2.2-1.4 4.6-2.7 5.3-3 .6-.3 1.8-.7 2.5-1 .6-.3 2.6-1.4 4.2-2.5 1.7-1.1 4.1-2.4 5.4-3 1.3-.6 3.8-2.1 5.5-3.3 1.7-1.2 3.8-2.7 4.8-3.2 14.3-8.2 35.9-28.8 40.4-38.5.4-.8 1.2-2.1 1.8-2.9 1.4-1.8 3.5-9.8 3.5-13.6.1-8.8-7.6-20.2-16.4-24.5-2.5-1.2-4.7-2.6-5.1-3.1-.3-.5-1.3-.9-2.3-.9-1 0-3.2-.7-4.7-1.5-1.6-.8-3.6-1.5-4.5-1.5-.9 0-3.3-.7-5.2-1.5-2-.8-5.1-1.5-6.9-1.5-1.8 0-5.5-.7-8.2-1.5-6.1-1.8-11.6-2-11.6-.3 0 2.4 1.8 4 5.1 4.7 4.5.9 4.5 3.6-.1 5.9-3 1.4-3.5 2.3-3.8 5.5-.6 6.7-4.7 6.1-6.7-1-.9-3.1-1.6-3.8-5-4.7-2.9-.9-4-1.7-4-3.1 0-1.6.8-2.1 3.5-2.3 3.7-.4 7-2.6 7-4.9 0-1.6.5-1.5-15.5-1.7l-13-.1-.7-4.5c-.4-2.5-1.6-9-2.8-14.5-1.2-5.5-2.5-13.2-3-17-.5-3.9-1.3-9.5-1.8-12.5-1.8-9.8-3.5-39.7-2.7-46.7 1.5-14 1.4-14.4-2.5-15.7-2.6-.8-4.1-2.2-5.7-5.6-1.3-2.4-2.3-5.6-2.3-7 0-3.4-1.7-5-5.2-5-3 0-9.8-5.3-9.8-7.6 0-1.6-5.6-8.1-8-9.4-1.3-.7-3.4-.3-7.6 1.6-5.1 2.2-6.3 2.4-9.5 1.5-2-.6-4-1.8-4.3-2.6-.4-1.1-2.1-1.5-6-1.5-4.5 0-5.7.4-6.6 2-1.4 2.7-8.4 7-11.2 7-1.4 0-4-1.8-6.7-4.5l-4.4-4.5H269c-7.5 0-8 .1-12.2 3.6zm22.4 11.5c8 3.5 11.3 3.4 19.9-.2 3.5-1.6 5.9-1.9 8.6-1.5 2.1.4 8.1 1 13.3 1.3l9.5.5 6.5 6.1c10.5 9.8 17 19.6 16.2 24.4-.4 2.7-2.2 2.9-6.5.6-1.8-.9-4.9-1.8-7.1-1.9-2.1-.1-5-1.1-6.5-2.3-6-4.8-11.4-7.3-17.4-8.2-3.4-.5-7.7-1.2-9.6-1.5-7.3-1.4-16.9 7.2-19.2 17.2-2.3 10.1-2.1 9.8-7 10.8-4.6.9-4.7.8-8.4-3.3-2-2.2-4.4-4.1-5.1-4.1-.8 0-1.4-.4-1.4-1 0-.5-1.3-1.6-3-2.5-2.4-1.3-4.4-1.4-11.2-.6-4.6.5-10.1 1.4-12.3 2.1-2.2.6-6.7 1.6-10 2.1s-7.4 1.4-9.1 2.1c-2.3.8-4 .8-6.3 0-2.6-.9-3.7-.8-6.4.7-3.5 2.1-8.3 3.6-13.8 4.5-2 .4-5.4 2-7.5 3.6-13.9 10.5-14.2 11-10.4 13 2.2 1.2 6 .5 6-1.1 0-1.7 9.3-9.9 11.2-9.9 1.1 0 2.8.5 3.8 1 3 1.6 6.9-.5 8.6-4.5 1.2-3 1.9-3.5 4.7-3.5 4.3 0 4.9.6 7.6 7 1.3 3 2.7 5.9 3.2 6.4.5.6.9 3.1.9 5.7 0 2.9.6 5.1 1.5 5.9 4.1 3.4.5 9.1-9.4 15-4.5 2.6-9 5.5-10 6.4-.9.9-2.1 1.6-2.5 1.6-.5 0-2.5 1.9-4.5 4.1-3.3 3.8-3.9 4.1-5.9 3-1.2-.6-2.2-1.5-2.2-2 0-.4-2.3-3-5.1-5.7-6.1-5.9-7.9-9.1-7.9-14.1-.1-2.1-.7-4.9-1.5-6.3-.8-1.4-1.4-3.8-1.5-5.3 0-3.7-2.2-3.1-3.5 1-.6 1.6-1.7 3.8-2.5 4.8-1.2 1.4-1.2 1.9-.2 2.3.7.2 2.6 1.8 4.1 3.4 2.5 2.7 2.9 4 3.4 11.5.2 4.6.8 8.7 1.1 9 .3.4 1.4-.1 2.4-1 4-3.6 5.7-1.2 3.3 4.5-1.1 2.7-2.6 4.2-4.8 5-3.7 1.4-3.8 1.6-1.9 6.1 1.3 3.1 4.1 5 13.6 9 6.8 2.8 18.2 6.4 24.5 7.6 3.8.7 8 1.9 15 4.3 1.7.5 4.6 1.3 6.5 1.8 1.9.4 5.7 1.9 8.4 3.4 2.7 1.4 5.7 2.6 6.7 2.6s2.2.6 2.6 1.2c1.2 1.9 7.2 4.8 9.9 4.8 1.3 0 2.4.4 2.4 1 0 .5.7 1 1.6 1 1.1 0 1.4-.5 1-1.6-.3-.9-.6-2.3-.6-3.2 0-1.5-.2-1.5-1-.2-.7 1.1-1.4 1.2-2.4.5-.7-.6-3.9-2.7-6.9-4.8-3-2.1-6.1-4.4-6.7-5.2-.7-.8-2-1.5-2.9-1.5-.9 0-2.2-.5-2.9-1.2-1.3-1.3-7.9-3.8-10.2-3.8-.8 0-2.8-.8-4.5-1.7-3.1-1.7-9.3-3-18-4-2.7-.3-5.5-.9-6.2-1.5-.6-.5-3.8-1.2-7-1.5-9.9-1-11-2.4-7-9.5 2.2-4.1 8.1-10.8 9.5-10.8.4 0 1.8-1 3.2-2.3 1.4-1.2 5.8-3.9 9.8-6 6.4-3.2 8.2-3.7 15-3.8 10.8-.2 16.7.9 24 4.2 3.4 1.6 6.7 2.9 7.2 2.9.6 0 1 .4 1 .8 0 .5 2 2.2 4.5 4 4.2 3 5.8 6.3 3.6 7.6-.5.3-1.2 2.3-1.6 4.3l-.7 3.8-2.6-3.2c-6-7-6.9-7.9-10.2-10.6-1.8-1.5-4.2-2.7-5.1-2.7-1 0-1.9-.6-2.1-1.3-.7-2-20.5-2.3-24.3-.4-1.6.9-4.2 1.8-5.7 2.1-2.8.6-11.8 8.8-11.8 10.6 0 .6 2.6-.8 5.8-2.9 3.1-2.2 6.9-4.2 8.5-4.6 1.5-.4 2.7-1.1 2.7-1.6s4.4-.9 9.7-.9c8.7 0 10.4.3 15.3 2.7 6.6 3.4 13.3 9.8 15.6 15 .9 2.1 2 6.9 2.4 10.8.5 3.8 1.6 8.8 2.5 11 1.6 3.7 1.8 3.8 3.1 2 1.8-2.4 1.8-5.9 0-11.7-3.4-11.4 4.4-27.7 18.8-39.3 2.1-1.8 8-4.6 12.6-6.3 6.7-2.3 23.3-2.1 26 .3 1.1 1 2 2.2 2 2.7s-3.3 4.2-7.2 8.3c-12.5 12.5-23.8 27.3-25.2 32.8-.3 1.5-1.1 2.7-1.6 2.7-.6 0-1 .7-1 1.5s-1.6 3.8-3.6 6.5c-2.9 4-3.4 5.3-2.4 6.5.8 1 .8 1.9.1 3.4-1.7 3.1-1.4 14.1.3 14.1.8 0 1.8-1.4 2.2-3.3.3-1.7 1.5-4.7 2.4-6.5 1-1.8 1.6-4.2 1.3-5.2-.3-1.2.1-2.2 1.1-2.6 2-.8 2.1-3.4.1-3.4-.8 0-1.5.7-1.5 1.5s-.7 1.5-1.5 1.5-1.5-.7-1.5-1.5.7-1.5 1.5-1.5c.9 0 1.5-.9 1.5-2.5 0-1.4.5-2.5 1-2.5.6 0 1.4-.8 1.7-1.7 3.1-7.9 16.8-24.1 37.4-43.8 7.5-7.2 16.9-19.4 16.9-22 0-.6 1.1-2 2.4-3.3 2.7-2.5 4.3-1.4 2.6 1.7-2.1 4-.6 15.1 2.1 15.1.6 0 1.3-.9 1.6-2 .3-1.1 1.1-2 1.8-2 .8 0 1.4 2.1 1.8 6.2.3 3.5 1.3 10.1 2.3 14.8 1 4.7 1.8 12 1.8 16.2.1 6.3.4 7.7 1.6 7.5 1.1-.1 1.7 1.1 2.1 4.3.3 2.5 1.3 5.8 2.2 7.5.9 1.6 1.7 3.7 1.7 4.6 0 .9.7 3 1.5 4.5.8 1.6 1.5 4.8 1.5 7 0 2.3.7 5.8 1.5 7.7 2 4.7 1.9 16.5 0 19.1-.8 1.1-1.5 2.9-1.5 4 0 2.9-6.2 14.9-9.8 19-1.6 1.9-3.1 3.8-3.3 4.3-.6 1.2-15.5 14.3-16.4 14.3-.4 0-2.4 1.4-4.5 3-2.1 1.7-4.5 3-5.3 3-.9 0-1.8.4-2.1.9-.7 1.1-8.8 5.1-10.3 5.1-.9 0-5 1.6-12.8 5-4.1 1.8-6.2 2-7.3.7-1.1-1.3-5-14.5-6.2-21.2-.4-2.2-1.8-7.6-3-12-1.3-4.4-2.6-10-3-12.5-.4-2.5-1.2-5.6-1.7-7-.6-1.4-1.6-5.7-2.3-9.5-1.5-8.3-2.5-10.5-4.7-10.5-.9 0-4-2.4-6.8-5.4-4.3-4.5-5.8-5.4-9.8-6-3.1-.5-4.7-1.2-4.7-2.2 0-1.7-.2-1.7-3.4-.3-2.7 1.2-2.6 2.9.1 2.9.9 0 2.5 1 3.7 2.2 1.2 1.3 4.1 4 6.6 6.1 4.7 4.1 11 13.6 11 16.7 0 1.1.6 3.4 1.4 5.2 2.1 5.1 4.6 13.4 4.6 15.2 0 .9 1.3 5.8 2.9 10.9 1.6 5.1 3.7 11.9 4.6 15.2 1 3.3 2.4 7.7 3.1 9.8.8 2.1 1.2 4.2 1 4.6-.9 1.5-13.1 3.9-25.2 5.1-9.2.9-14.5.9-22 0-9.9-1.1-23-4.5-24-6.1-.3-.5-1.2-.9-2.1-.9-3.6 0-22.3-13.9-22.3-16.6 0-.4-.6-1.2-1.4-1.8-1.9-1.5-7.6-12.4-7.6-14.5 0-1-.5-2.2-1-2.7-1.2-1.2-2.9-9.3-3.7-17.1-.3-2.9-1.1-5.7-1.9-6.4-.8-.7-1.4-3-1.4-5.5 0-2.4-.4-4.4-.9-4.4s-1.5-1.7-2.2-3.8c-.6-2-1.5-4.2-1.9-4.7-.4-.6-1.1-2.6-1.5-4.5-.4-1.9-1.3-4.8-2-6.5-.7-1.6-2.1-5-3-7.5-.9-2.5-2.4-6-3.3-7.8-1.8-3.7-1-5.2 1.8-3.4 1.1.7 2.2 1.2 2.5 1.2 1.2 0 .4-5.9-1-7-.8-.7-1.5-1.8-1.5-2.4 0-1.6-4.1-6.5-12.3-14.8-5.6-5.7-6.6-7.3-6.1-9.3.5-1.9 0-2.8-2.5-4.3-2.9-1.8-3-1.9-1.1-3.4 1-.9 2.7-2.1 3.9-2.7 1.1-.6 2.3-2.1 2.7-3.3.3-1.2 1.3-2.8 2-3.6.8-.7 1.1-1.8.8-2.4-.4-.7-1.8.2-3.3 2.1-2.3 2.8-3.2 3.2-6.6 2.9-3.8-.3-4-.5-4.1-3.8-.1-1.9-.5-4.8-.9-6.3-.6-2.3-.2-3.4 2.1-5.8 2.6-2.7 2.8-3.4 2.5-10.6-.1-4.3-.7-8.3-1.2-8.9-1.6-2 2.9-4.4 8.2-4.4 2.6 0 6-.3 7.8-.6 3.3-.7 13.8-9.2 15.8-12.9.7-1.3 2.9-3.3 5-4.5 4.2-2.5 9.6-2.3 14.8.4 1.7.9 3.8 1.6 4.8 1.6 2 0 9-4.1 12.7-7.5 1.4-1.3 3.6-2.6 5-3 1.4-.4 5-2.4 8.1-4.5 5.1-3.4 6-3.7 11.1-3.2 4.6.3 5.8.1 7.4-1.6 2.6-2.8 17.3-10.2 20.2-10.2 1.3 0 5.5 1.4 9.4 3.1zm28.7 27c3.5 3.5 4 7.6 1.6 12.3-1.7 3.2-2 10.6-.5 10.6.5 0 1.2-1.2 1.6-2.8.3-1.5 1.2-4.1 2-5.9.8-1.7 1.4-4.9 1.4-7.1 0-4.3 1-5.2 6.1-5.2 1.7 0 4.1 1.1 5.9 2.7 2.8 2.6 3 3.1 2 6.3-.6 1.9-1.5 6.8-2 10.7-.5 4-1.7 9.5-2.6 12.2-1.9 5.9-1.6 10.5.8 10.9 1.2.2 1.9-.6 2.4-3.2.3-2 1-3.9 1.5-4.2.5-.3.9-1.4.9-2.6 0-1.1.6-3.2 1.4-4.6 2.2-4.4 3.8-9.5 4.3-13.5.6-4.3 3.5-6.2 8.1-5.1 6.4 1.5 8.8 7 5.7 13-.8 1.6-1.5 3.9-1.5 5.1 0 1.2-.6 3.4-1.4 5-2.7 5.7-4.4 9.9-5 12.3-.3 1.4-2 4.3-3.9 6.5l-3.4 3.9-4.5-3.1c-2.5-1.7-6.4-3.4-8.6-3.8-2.3-.3-5.7-1.5-7.6-2.5-2.8-1.4-3.6-1.5-3.6-.4 0 1.7-3.9 2.7-8.5 2.2-2.7-.3-3.6 0-4 1.4-.6 1.7-1.5 2.1-7.3 3.3-1.8.4-3.7 1.5-4.2 2.5-.6 1.1-2.4 2.7-4.1 3.7-1.7 1-4.3 3.9-6 6.5-2.5 4.2-5.9 6.4-5.9 4 0-1.6-8.1-8.9-11.8-10.8-2.1-1-4.4-2.5-5.3-3.2-.9-.7-5.3-1.5-9.8-1.9-9.8-.7-11.2-1.9-7.1-5.8 1.7-1.6 3-3.4 3-4.1 0-1.8 8.2-9.4 10.2-9.4.9 0 1.9-.4 2.2-.9 1.1-1.6 8.9-4.7 16.6-6.6 11.7-2.7 20.8-1.1 35.2 6 4.8 2.4 9 4 9.3 3.5.8-1.4-7.2-9-9.5-9-1.1 0-2.8-.4-3.8-.9-.9-.5-2.5-1.2-3.4-1.5-2.2-.7-2.3-3.5-.3-10 .8-2.7 1.5-6.2 1.5-7.8 0-3.1 2.3-7.3 5.5-10 2.7-2.3 2.9-2.3 6.4 1.3zM172 121.3c-4.9 4.4-8 5.9-11.1 5.2-2.8-.6-2.9-.8-1.2-2.1 1-.7 3.2-1.6 5-2 1.8-.3 3.7-1.2 4.4-2 .6-.8 2.1-1.4 3.3-1.4 2 0 2 .1-.4 2.3zm76 6.2c1.6 1.9 3.9 1.9 6.4 0 1.1-.8 3.9-1.5 6.2-1.5 3.8 0 4.3.3 5.3 3 2 5.9-1.8 13.1-6 11.5-.8-.3-5.2.8-9.7 2.4-9.2 3.4-14.8 7.9-15.8 12.9-.7 3.6-4.9 8.6-6.4 7.7-.6-.3-1-1.7-1-3 0-1.4-.6-4.2-1.4-6.2-2.9-7.9-4.6-14.3-4.6-17.7V133l7.7.1c7.7.1 7.7.1 10.6-3.5 3.1-3.9 6.5-4.7 8.7-2.1zm146.2 111.7c4 4.4 10.8 8.8 13.4 8.8 1.1 0 5.3-2.5 9.3-5.5 4-3 8.4-5.8 9.7-6.1 9-2.3 27.3 5.7 33 14.3 2.9 4.5 2.9 10.6 0 16.6-3 6.5-12.5 17.7-19.1 22.7-2.6 1.9-6.3 4.9-8.3 6.5-6.1 5-14.5 10.3-17.5 11-1.5.4-3.1 1.2-3.5 1.9-1 1.5-2.7 2.5-19.2 10.9-8 4.1-17.2 8.3-20.5 9.5-3.3 1.1-7.3 2.7-9 3.6-1.6.9-3.9 1.6-5 1.6s-2.9.7-3.9 1.5c-1.1.8-5.1 2.4-9 3.6-3.9 1.1-8.7 2.7-10.6 3.5-1.9.7-7.1 2.3-11.5 3.4-4.4 1.2-11.6 3.2-16 4.5-4.4 1.4-10.7 2.9-14 3.5-3.3.5-8.4 1.7-11.4 2.5-7.5 2-34 6.1-49.1 7.6-23 2.2-51.4 1.4-67.1-2-21.8-4.5-33.3-12.2-34.6-23-.5-4.2-.1-5.9 2.2-10.7 3.3-6.7 13.8-18.6 21.5-24.2 3-2.3 7.4-5.5 9.7-7.2 2.3-1.8 5.8-4 7.8-5s4.2-2.4 5-3c.9-.7 2.6-.9 4-.6 2 .5 3.4 2.5 6.4 8.9 4.7 9.9 9.8 16.8 16.8 22.8 8.4 7.1 10.5 8.5 18.9 12.8 16.6 8.4 36.8 10.9 58.4 7.1 8-1.3 13.7-2.9 16-4.3 1.9-1.2 6-2.5 9-2.8 16.4-2 23.6-4.6 43.1-16.1 7.5-4.4 20.4-16.3 24.2-22.4 1.4-2.2 3.2-4.8 4-5.6 2.2-2.2 7.4-15.2 9.3-23.3 1.2-5.3 1.5-9.5 1-17.4-.7-10.1-.1-13.1 2.6-13.1.6 0 2.4 1.5 4 3.2z" />
        <path
            d="M194 157.2c0 1.6.5 2.8 1 2.8 1.3 0 1.3-2 0-4-.8-1.2-1-.9-1 1.2zM301.5 176.9c-.3.7.2 1.1 1.4 1.1 1.1 0 2.3.4 2.6 1 .4.6-.9 1-3.3 1-2.3 0-4.5.6-5.2 1.5-.7.8-1.9 1.5-2.7 1.5-.7 0-1.6.7-1.9 1.5-.4.8-1.2 1.5-1.9 1.5-1.7 0-10.5 10-10.5 12 0 .8-.7 2.4-1.5 3.4-.8 1.1-1.5 3-1.5 4.1 0 1.2-.7 3.6-1.5 5.3-1.6 3.1-1.2 10.7.6 11.8.5.3.9 1.8.9 3.3 0 1.5.7 3.6 1.6 4.7 1.4 1.7 1.5 1.2.9-6.8-.7-9.2.7-19 3.2-21.9.7-.8 1.3-2 1.3-2.5 0-1.9 10.6-12.4 12.5-12.4 1 0 2.6-.7 3.6-1.6 1.3-1.1 3.8-1.6 8.9-1.6 6.9-.1 9.6-1.2 6.9-2.9-.8-.5-2.4-.9-3.7-.9-1.6 0-2.2-.5-2-1.8.2-1.3-.5-1.8-3.9-2-2.2-.2-4.4.2-4.8.7zM359.7 186.6c-.4.4-.7 1.7-.7 2.9 0 1.3-.7 2.8-1.5 3.5-.8.7-1.5 1.8-1.5 2.6 0 .7-.8 1.7-1.7 2.2-2.2 1.2-13.4 2.1-12.8 1.1.3-.4-.1-1.2-.9-1.8-1.8-1.6-4.6 1.1-4.6 4.4 0 1.5-1 3.1-2.5 4.1-2.8 1.8-3.2 4.5-1.1 6.3 1.2 1 1.5.6 2.1-1.8.7-3.3 4.7-5.5 9.8-5.3 1.8.1 4.4.2 6 .2 4.2.1 9.1-4.2 10.4-9.3 1.2-4.3.5-10.6-1-9.1zM227 191.7c.1 1.2 5.1 4.6 5.8 3.9 1.1-1.1-1.4-4.1-3.7-4.4-1.1-.2-2.1 0-2.1.5zM244 198.5c-1.3 1.4-2 2.8-1.6 3.2.4.4 1.2 0 1.7-1 .6-.9 1.9-1.7 2.9-1.7 2.5 0 3.4-1.6 1.4-2.4-2.1-.8-1.7-.9-4.4 1.9zM213 197.9c0 .5.9 1.1 2.1 1.4 1.6.4 1.8.3.8-.9-1.3-1.6-2.9-1.9-2.9-.5z" />
        <path
            d="M286.7 205.1c-1 1.1-1.6 2.8-1.4 3.7.3 1.3.7 1.1 1.7-1.1.7-1.5 1.9-2.7 2.6-2.7.7 0 1.6-.5 1.9-1 1.1-1.8-3-.9-4.8 1.1zM318.8 210.6c-3.1.9-3.2 8.4-.1 14.4.7 1.4 1.3 3.1 1.3 3.8 0 .8.6 1.2 1.3.9.8-.2 1.2-2.6 1.2-6.9 0-5.8.3-6.8 2.5-8.6 1.4-1.1 2.2-2.3 1.9-2.6-.8-.9-6.2-1.5-8.1-1zM307.6 228.5c-.3.8-1.5 1.5-2.6 1.5-2.6 0-6 1.7-6 3 0 .6.9 1 1.9 1 1.1 0 4 1.3 6.4 3 2.5 1.6 5 3 5.7 3 .7 0 2.4.7 3.9 1.6 2.5 1.5 3 1.5 6 0 2.9-1.5 3.2-2.1 2.9-5.4-.4-4.9-3.7-5.6-7.9-1.6-2.8 2.7-2.9 2.7-4.9.9-1.1-1-2.2-3.3-2.6-5.1-.7-3.6-1.8-4.4-2.8-1.9zM347 230.4c0 4.2 7.3 7.7 8.6 4.2.9-2.4-2.8-6.5-5.8-6.6-2.3 0-2.8.4-2.8 2.4zM203.1 234.2c-1.4 3.7-4.7 6-9.5 6.5-4.1.5-4.8.3-7.5-2.6-3.3-3.6-4.1-3.8-4.1-1.4 0 2.5 3.4 7.4 6.2 8.9 3.3 1.9 9.1 1.7 11.9-.4 3.9-2.8 6.8-4.2 8.6-4.2 1 0 2.5-.4 3.2-.9 1.2-.8.7-1.7-2.4-4.5-4.6-4.2-5.3-4.4-6.4-1.4zM222.6 237.5l-3 2.4 2.5.5c1.3.3 3.3.7 4.4.8 1 .2 2.5 1.4 3.2 2.8 3.9 8 5 11.3 4.6 13.1-.7 2.5 3.2 6.9 6.1 6.9 2.4-.1 5.4-2.1 7-4.8 4.2-7.3 8.8-13.2 10.3-13.2 1.3 0 1.4-.3.5-1.2-.9-.9-2.1-.8-5.3.2-3.3 1.1-4.3 1.2-4.7.2-1-3-2.2-.7-2.2 4.3 0 6-.4 6.3-5.8 4.4-2.7-.9-3.2-1.6-3.7-5.7-.4-2.6-1.5-6.6-2.6-9-1.7-3.7-2.3-4.2-5.2-4.2-1.9.1-4.4 1.1-6.1 2.5zM216 240.9c0 1.2.5 2.1 1 2.1.6 0 1-.6 1-1.4 0-.8-.4-1.8-1-2.1-.5-.3-1 .3-1 1.4zM197.2 263.1c.3 3.7 3.1 6 4.9 4.2.8-.8.6-1.9-.5-4.2-2.2-4.2-4.8-4.2-4.4 0zM301.7 263.7c-1.5 1.4-.7 4.3 1.2 4.3 2.4 0 3.3-1.3 2.5-3.4-.6-1.6-2.5-2.1-3.7-.9zM227 273.5c-1.7 2-.5 4.5 2 4.5 1.1 0 2.3-.7 2.6-1.5.6-1.5-1.1-4.5-2.6-4.5-.4 0-1.3.7-2 1.5zM311.2 283.2c-.7.7-.8 1.7-.1 3 1.3 2.4 3.6 2.3 4.9-.2.8-1.5.6-2.1-.9-3-2.4-1.3-2.4-1.3-3.9.2zM213.2 305.7c.2.9.8 1.8 1.5 2 .7.3.9-.3.6-1.6-.6-2.5-2.6-2.8-2.1-.4zM270 150c0 .6 3.2 1 7.8 1 5.3 0 7.2-.3 6.2-1-2-1.3-14-1.3-14 0zM256.8 153.2c-2.1 1.1-3.8 2.4-3.8 2.9s-.6.9-1.3.9c-1.4 0-5.7 4.1-5.7 5.3 0 1.4 2 .6 5.2-2.1 4.3-3.5 8.5-5.8 12.6-6.7 1.7-.3 3.2-1.1 3.2-1.6 0-1.6-6.4-.8-10.2 1.3zM286.5 151.9c.3.5 2 1.2 3.8 1.6 3.6.7 9.9 3 14 5.2 1.6.8 3.1 1.3 3.4 1 .8-.9-.7-2.7-2.3-2.7-.8 0-1.4-.4-1.4-.8 0-1.5-10-5.2-14.1-5.2-2.2 0-3.8.4-3.4.9zM266.5 158.7c-2.7.8-5.7 2.1-6.6 2.9-.8.8-2.1 1.4-2.7 1.4-1.2 0-3.7 3.9-2.9 4.6.3.3 2-.4 3.8-1.5 4.3-2.6 4.3-2.6 11.1-4.1 3.6-.8 7.9-1 12-.6 9.5 1.2 11.7 1.2 12 .2.4-1.4-12-4.6-17.2-4.5-2.5.1-6.7.8-9.5 1.6zM269.5 167.9c-.6.5-2.1 1.1-3.4 1.3-1.4.1-2.6.9-2.9 1.5-.5 1.8 3.7 1.6 6.8-.2 1.4-.8 4.2-1.4 6.2-1.5 2 0 4-.5 4.3-1 .8-1.3-9.7-1.4-11-.1zM86.1 155.3c-.6 1.6-1.1 3.9-1.1 5.2 0 4-3.9 7.3-9.5 8.2-3.1.5-5 1.4-5 2.2 0 1.3 6.5 4.1 9.7 4.1 2 0 4.8 4.8 4.8 8.3 0 1.3.6 3.2 1.4 4.2 1.3 1.8 1.4 1.8 2.3-.1.6-1 1.6-4.1 2.4-6.7 1.1-3.8 1.9-4.9 3.9-5.3 5.5-1.2 9.5-3.1 9.8-4.7.3-1.3-.4-1.7-3.2-1.7-1.9 0-4.7-.5-6.1-1.2-2.6-1.2-5.5-6.4-5.5-9.7 0-1-.6-2.6-1.4-3.7-1.4-1.8-1.5-1.8-2.5.9zM127 173.5c0 .8.4 1.5.9 1.5 1.4 0 5.7 8.8 6.5 13.2 1.2 6.3 5.6 7.7 5.6 1.8 0-3.9-3.2-10.9-6.8-14.8-3.3-3.4-6.2-4.2-6.2-1.7zM386.6 413.1c-3 3.5-3.6 4.9-3.6 8.8 0 4.1.5 5.2 3.6 8.2 3.3 3.2 3.9 3.4 10.5 3.4 6.8 0 7.1-.1 9.9-3.5 2.3-2.7 3-4.5 3-8.1 0-2.9-.6-5.1-1.5-5.9-.8-.7-1.5-1.7-1.5-2.2 0-2.7-4.6-4.7-10.6-4.8-6 0-6.3.1-9.8 4.1zM127.5 425.6c-4.8 2.5-5.5 4.1-5.5 12.4 0 4.2-.7 14.6-1.4 23.1-.8 8.5-1.6 22.9-1.7 32.1-.3 16.6-.3 16.7 2.2 18.7 2 1.7 3.8 2 11 2.1 6.5 0 9-.4 9.9-1.5.9-1.1 1.1-8.4.9-30.2-.4-25.7-.2-28.8 1.2-29.1 2.5-.5 4.3 2.6 5.6 9.2 1.7 9 3.3 15 4.4 16 .5.6.9 2.3.9 3.8 0 1.6.9 4.6 2 6.8 2.2 4.3 4.4 5.1 13.2 5.1 7.3 0 10.6-1.4 11.4-4.8.3-1.5 1.2-4.8 1.9-7.3.8-2.5 2.1-7.2 3.1-10.5.9-3.3 2.1-7 2.5-8.3.5-1.3.9-3.6.9-5.1 0-3.1 2.5-6 4-4.5.4.5 1 13.2 1.2 28.2l.3 27.4 3 2.4c2.6 2.1 4.1 2.4 11.1 2.4 6.8 0 8.4-.3 9.9-2 1.8-1.9 1.8-2.5.2-13.3-1-6.1-1.7-14.6-1.8-18.7 0-4.1-.4-10.7-.9-14.5-.6-3.9-1.4-13-2-20.3-.5-7.2-1.4-14.1-2-15.1-2.2-4.3-7.2-6.1-16.5-6.1-9.9 0-13.9 1.8-14.8 6.7-.2 1.6-1 4.3-1.6 6-.6 1.8-1.6 4.8-2.2 6.5-.6 1.8-1.4 5.1-1.8 7.3-.4 2.2-1.3 5-1.9 6.2-.7 1.2-1.2 4.2-1.2 6.6 0 8.1-6 9.5-7.1 1.7-.4-2.5-1.4-7-2.3-10-.9-3-2.1-7.1-2.5-9-2.1-8.9-6.7-17.6-10.7-19.9-4.5-2.7-18.2-2.9-22.9-.5zm16.3 14c3.6 2.5 2.7 5.5-2.8 10.4-2.8 2.5-5.6 4.5-6.3 4.5-1.7 0-1.5-12.9.2-14.9s6-2 8.9 0zm57.6.7c.8 1.2 1.6 4.2 1.8 6.7.3 3.9 0 4.5-1.8 4.8-2.8.4-9.2-3.8-10-6.5-1.6-5.7 6.8-10 10-5zM256 439.5c-.8.2-4.8.9-8.9 1.5-13 2.1-17.7 7.2-14.7 15.7 1.7 5.1 3.6 6 7.7 4.1 5.4-2.6 11-3.8 17.1-3.8 8.9 0 14.7 3.6 14.8 9.1v2.6l-12.2.6c-18.2.8-26.2 4.2-30.5 12.7-5.6 11-.3 24.6 11.7 30.2 4 1.9 6.3 2.2 20.6 2.2 16.8.1 16 .2 26.4-4.9 1.4-.7 3.4-2.7 4.6-4.3 2-2.9 2.1-4.1 1.7-20.9-.6-28.5-.8-29.8-5.5-34.9-2.2-2.4-4.7-4.4-5.5-4.4-.7 0-2.4-.6-3.6-1.4-3.9-2.5-18.6-5.1-23.7-4.1zm26 33.1c1.4 3.5 1.2 5.7-.5 8-1.4 1.9-1.5 1.8-3.5-.6-2.4-3-2.5-4.9-.4-7.8 2-2.9 3.2-2.8 4.4.4zm-10 16.9c0 6.1-.1 6.5-3 8-3.9 2-11.4 1.9-14.8-.2-3.5-2.3-4.2-3.3-4.2-6.5 0-5 4.8-7 18.3-7.6l3.7-.2v6.5zM330.5 440.6c-15.6 3.8-23.4 11-26.4 24.4-1.3 5.4-1 16.9.4 24 1.1 4.9 5.9 12 10.6 15.4 7.4 5.3 21.7 7.3 29.4 4 5-2 6.5-1.3 6.5 3.2 0 2.9-.8 4.4-3.9 7.5l-3.9 3.9h-10.3c-9.3 0-10.9-.3-15.7-2.7l-5.4-2.7-2.4 2.7c-1.7 2-2.4 4-2.4 7.1 0 5.3 2.5 8.8 8.3 11.8 3.8 2 5.7 2.2 19.7 2.1 16.2 0 16.9-.2 26.7-5.7 3.7-2.1 8.8-9.7 10.1-15.1 1.3-5.3 1-65.3-.3-68.7-.8-2-6.8-6.8-8.5-6.8-.7 0-2.4-.7-3.8-1.5-3.2-1.7-15.9-4.5-19.9-4.4-1.5 0-5.5.7-8.8 1.5zm17 18.6l2.5 1.1V475c0 14.6 0 14.8-2.5 16.4-3.3 2.2-9.7 2-14.3-.3-2.9-1.5-4.1-3-5.5-6.8-2.9-8.2-1.5-17.9 3.3-22.1 4.5-3.9 11.7-5.2 16.5-3zm12.9 40.6c-.1 2.9-.5 5.6-.8 5.9-.7.8-6.6-4.6-6.6-6.1 0-1.7 4.4-5.7 6-5.4 1.1.3 1.5 1.6 1.4 5.6zM445.6 441c-3.7 1-7.3 2.3-7.9 2.9-.6.6-1.8 1.1-2.6 1.1-2.4 0-10.7 8.3-13.2 13.2-5.8 11.4-5.4 30 .9 40.9 6.5 11.2 19.5 16.6 37.7 15.7 12.4-.6 18.4-4.8 18.4-12.8 0-7.5-5.2-11.3-10.3-7.5-2.9 2.2-14.9 2-18.4-.2-5.3-3.3-7.2-6-8.2-11.2-1.5-7.8.2-14.1 5.1-18.9 5.3-5.3 10.7-6.7 18-4.6 10.3 2.9 10.3 2.9 12.2-1.1 2.7-5.7 2.2-8.3-2.3-12.5-2.7-2.5-5.9-4.2-10-5.3-7.4-2.1-10.6-2-19.4.3zM385.3 443.2c-.4.7-.6 15-.5 31.8.1 16.8.2 31.3.2 32.3 0 1 1.2 2.9 2.6 4.2 2.4 2.2 3.6 2.5 11 2.5 5.5 0 8.5-.4 9.1-1.3.4-.6.7-15.8.5-33.7l-.2-32.5-2.7-2.2c-2.4-2-4-2.3-11-2.3-5.5 0-8.4.4-9 1.2zM287.7 550.6c-.4.4-.7 7.1-.7 14.9 0 17.3.1 17.5 10.8 17.5h7.2l2.4-3.9c3.5-5.5 4.3-10.5 2-13.8-3-4.7-5.6-6.2-10.5-6.3-4.5 0-4.5 0-5.5-4.3-.7-3.1-1.4-4.3-2.9-4.5-1.2-.2-2.4 0-2.8.4zm12 14c2.8.8 4.7 6.1 3.4 9.6-1.1 2.9-5.2 4.3-8.1 2.8-1.6-.9-2-2.1-2-6.5 0-6.2 1.3-7.3 6.7-5.9zM344.3 552.2c-.4.7-.6 7.1-.5 14.3.4 15.9.9 16.7 9.9 16.8 9 0 13.3-4 13.3-12.5 0-7.6-3.9-11.7-11.2-11.8-4.4 0-4.8-.2-5.4-2.8-.8-3.3-2.2-5.2-4-5.2-.7 0-1.6.6-2.1 1.2zM358 566c3.3 3.3 2.3 10.6-1.5 11.6-1.3.3-3.3.1-4.4-.6-1.7-.9-2.1-2-2.1-6.5 0-3.3.5-5.5 1.3-5.8 2.5-1.1 4.8-.6 6.7 1.3zM230.2 567.7l.3 14.8h3.5c3.5 0 3.5-.1 3.5-4.3 0-3.1.5-4.6 1.7-5.3 1.5-.8 2.4 0 5.4 4.6 3.2 5.1 3.8 5.6 6.7 5.3 4.8-.5 4.5-2.9-1.2-8.3-2.8-2.7-5.1-5.4-5.1-6 0-.7 1.6-2.5 3.5-3.9 5.2-4 6.9-7 5.5-9.5-2.1-3.9-5.3-2.6-9.5 3.9-2.1 3.3-4.3 6-4.7 6-1.3 0-2.1-2.8-2.2-7.4-.1-4-.2-4.1-3.9-4.4l-3.8-.3.3 14.8zM261.8 562c-3.5 4-4.5 9.8-2.3 14.1 2.7 5.1 4.7 6.7 9.5 7.3 6.1.9 10.4-.4 10.8-3.2.3-2-.1-2.2-4.5-2.2-6.2 0-9.3-.9-9.3-2.6 0-.7.8-1.8 1.8-2.3 1.6-.9 1.5-1.1-.5-2.6-2.8-2-2.9-4.1-.4-5.5 2.4-1.2 4.1-1.3 6.1 0 1.2.7 1.2 1.2 0 3.4-1.7 3.4-1 3.9 3.9 3.1 3.7-.6 4.1-1 4.1-3.6 0-2.1-1-3.9-3.2-6-2.7-2.4-4.1-2.9-8.3-2.9-4.4 0-5.4.4-7.7 3zM317.4 560.5c-1.2 3 .2 4 5.7 4 4.8 0 5.4.2 5.7 2.2.2 1.7-.2 2.3-1.5 2.3-1.5 0-1.4.2.5 1.6 3.6 2.5 2.7 8.4-1.4 8.4-3.2 0-4.6-2.8-2.9-6 1.3-2.5 1.3-2.5-2.7-2.2-5.3.6-6.9 3.7-4.5 8.7l1.7 3.5h7.9c9.9 0 10.5-.7 9.9-12.2-.3-6.9-.6-8.2-2.7-9.9-3-2.4-14.8-2.8-15.7-.4z" />
    </g>
</svg>